<svg width="8" height="5" viewBox="0 0 8 5" fill="none" xmlns="http://www.w3.org/2000/svg">
<path d="M0.176092 0.163157C0.288878 0.0586876 0.441828 0 0.601308 0C0.760787 0 0.913737 0.0586876 1.02652 0.163157L4.00363 2.92157L6.98074 0.163157C7.09417 0.0616483 7.2461 0.00547989 7.40379 0.00674955C7.56149 0.00801922 7.71233 0.0666253 7.82384 0.169945C7.93536 0.273265 7.99861 0.413031 7.99998 0.559142C8.00135 0.705252 7.94073 0.846016 7.83117 0.951116L4.42885 4.10351C4.31606 4.20798 4.16311 4.26667 4.00363 4.26667C3.84415 4.26667 3.6912 4.20798 3.57842 4.10351L0.176092 0.951116C0.0633405 0.846615 0 0.7049 0 0.557136C0 0.409372 0.0633405 0.267658 0.176092 0.163157V0.163157Z" fill="#6C757D"/>
</svg>
