
<svg xmlns="http://www.w3.org/2000/svg" xmlns:xlink="http://www.w3.org/1999/xlink" version="1.1" width="512" height="512" viewBox="0 0 512 512" xml:space="preserve">
<g transform="matrix(0.2 0 0 0.32 255.56 254.94)"  >
<g style="" >
		<g transform="matrix(11.57 0 0 11.57 0 0.16)"  >
<path style="stroke: none; stroke-width: 1; stroke-dasharray: none; stroke-linecap: butt; stroke-dashoffset: 0; stroke-linejoin: miter; stroke-miterlimit: 4; fill: rgb(204,34,41); fill-rule: evenodd; opacity: 1;"  transform=" translate(-108, -68.76)" d="M 0 0 h 216 v 137.521 H 0 V 0 z" stroke-linecap="round" />
</g>
		<g transform="matrix(11.57 0 0 11.57 -706.67 -362.34)"  >
<path style="stroke: none; stroke-width: 1; stroke-dasharray: none; stroke-linecap: butt; stroke-dashoffset: 0; stroke-linejoin: miter; stroke-miterlimit: 4; fill: rgb(255,242,45); fill-rule: evenodd; opacity: 1;"  transform=" translate(-46.94, -37.44)" d="M 26.208 50.472 l 3.312 -10.296 l -8.424 -6.479 h 10.368 l 3.168 -9.36 l 3.096 9.36 h 10.728 l -8.496 6.479 l 3.168 9.937 l -8.496 -6.048 l -8.424 6.407 z m 25.2 -31.536 l 2.521 -3.96 l -2.88 -3.744 l 4.464 1.224 l 2.376 -3.528 l 0.216 4.248 l 4.536 1.152 l -4.32 1.8 l 0.216 4.536 l -2.88 -3.456 l -4.249 1.728 z m 14.976 15.336 l -0.864 -4.608 l -4.536 -0.72 l 3.96 -2.16 l -0.648 -4.248 l 3.024 2.952 l 4.104 -2.16 l -1.8 4.248 l 3.168 3.168 l -4.464 -0.576 l -1.944 4.104 z m 0 18.288 l -0.864 -4.68 l -4.536 -0.72 l 3.96 -2.16 l -0.648 -4.176 l 3.024 2.88 l 4.104 -2.088 l -1.8 4.176 l 3.168 3.24 l -4.464 -0.576 l -1.944 4.104 z M 56.376 65.952 l -0.864 -4.68 l -4.608 -0.72 l 4.032 -2.16 l -0.648 -4.176 l 3.024 2.88 l 4.032 -2.088 l -1.8 4.176 l 3.24 3.24 l -4.464 -0.576 l -1.944 4.104 z" stroke-linecap="round" />
</g>
</g>
</g>
</svg>
